<svg xmlns="http://www.w3.org/2000/svg" viewBox="0 0 26680 15103" shape-rendering="geometricPrecision" text-rendering="geometricPrecision" image-rendering="optimizeQuality" fill-rule="evenodd" clip-rule="evenodd"><defs><style>.fil2{fill:none;fill-rule:nonzero}.fil12{fill:#f9fafa}.fil12,.fil0{fill-rule:nonzero}.fil0{fill:#001328}.fil10{fill:#02567e}.fil10,.fil7{fill-rule:nonzero}.fil7{fill:#081d56}.fil6{fill:#1183a2}.fil6,.fil3{fill-rule:nonzero}.fil3{fill:#c82c45}.fil11{fill:#d8948c}.fil11,.fil5{fill-rule:nonzero}.fil5{fill:#df5964}.fil8{fill:#e2d7b8}.fil8,.fil1{fill-rule:nonzero}.fil1{fill:#ea563f}.fil9{fill:#eb5869}.fil9,.fil4{fill-rule:nonzero}.fil4{fill:#f9fbd6}</style></defs><g id="Layer_x0020_1"><g id="_674935375664"><path class="fil0" d="M26667 15085H0V0h26667z"/><path class="fil1" d="M22486 14v4037h-139V14h139zm0 4037c0 1-6 363 469 363h3712v139h-3712c-615 0-608-501-608-502h139zM958 11068s-162 832 649 832h2696l8 2c1 0 380 119 393-975-11-73-136-704 1115-689 1214 15 3202 0 3306-1 1 0 864-56 769 1559l8 2073-138 1-8-2077h69l-69-4c85-1456-622-1413-623-1413h-4c-7 0-2070 16-3312 1-1156-14-976 529-975 531l1 13c-13 1178-478 1131-553 1119H1607c-853 12-799-857-788-972V42h139v11026z"/><path class="fil1" d="M9902 13869c0 3-59 783 639 744l4-1c573 0 1680 10 1886 12 203 3 517-63 482 461l-138 2c-4-253 25-329-285-323-649-6-1297-12-1945-12-884 47-780-897-779-899l136 16zM4889 14l-1 656c8 34 59 233 213 241 219 11 5015 0 5152 0 37-3 404-19 413 493 9 457 28 797 28 798v6c0 1-16 361 203 362 290 2 12459 0 12677 0 38-4 512-40 503 568-7 552 27 11928 27 11961h-139c0-33-34-11411-26-11963 7-472-352-427-353-427h-7c-36 0-12391 2-12682 0-346-1-343-455-341-502-2-30-20-357-28-801-7-386-264-357-265-357l-6 1c-14 0-4941 11-5163 0-277-15-343-357-343-358l68-14h-69V14h139z"/><path class="fil2" d="M6180 0v15099"/><path class="fil3" d="M6250 0v15099h-139V0z"/><path class="fil4" d="M0 1348l24590-14v125L0 1473zM14 636l24590-14v125L14 761z"/><path class="fil3" d="M20528 14v15085h-139V14z"/><path class="fil1" d="M2597 42v15057h-139V42zM3375 42v15057h-139V42zM24972 14v15085h-139V14zM25722 0v15085h-139V0z"/><path class="fil3" d="M13617 19v15066h-139V19z"/><path class="fil5" d="M14186 2855h-1278v-964h1278z"/><path class="fil4" d="M13720 2366c0-99-80-179-178-179s-178 80-178 179 80 179 178 179 178-80 178-179z"/><path class="fil1" d="M21528 15099v-4216c-4-51-38-672 554-680 542-6 4573-20 4585-20v140c-12 0-4041 13-4583 19-466 6-418 531-418 533l-69 6h70v4218h-139zM7197 12641H28v-140h7169v140zm497 2458v-2221l1-3c4-97-33-159-105-194-87-43-220-54-388-41l-10-139c191-14 348 0 458 54 124 61 190 165 183 323v2221h-139z"/><path class="fil4" d="M0 10392h4694v112H0zM0 11006h4694v112H0z"/><path class="fil6" d="M4708 4051H555V2640h4153z"/><path class="fil4" d="M1258 2942c211 0 367 162 362 374-6 203-159 352-361 353-211 0-368-162-362-374 5-203 158-353 361-353z"/><path class="fil7" d="M3522 3271c-20 153-93 242-235 237-141-5-222-94-216-236 5-130 87-209 217-212 144-3 210 91 234 211zM2253 3055c138 18 227 91 222 235-4 142-92 224-233 218-130-5-210-87-212-218-2-144 85-217 223-235zM4515 3274c-13 140-82 232-224 234-141 1-225-84-226-226-1-131 79-213 208-221 142-9 218 77 242 213z"/><path class="fil8" d="M6610 12397c4-26 7-52 25-73-1 29 7 60-11 87l-14-14z"/><path class="fil9" d="M23663 20c-2-7-3-14-3-20h109c30 58 83 87 150 79 56-6 100-33 122-79h124c13 54 50 92 108 109 74 20 136-5 176-71 23-37 44-12 65-3 20 10 43 17 26 52-33 71-16 136 44 184 63 51 131 49 194 1 37-28 43 10 59 24 18 16 30 30 6 57-62 71-70 130-31 193 40 65 100 92 175 71 35-10 41 8 47 33 5 23 28 47-13 63-74 29-113 84-104 165 9 82 61 126 139 138 42 6 28 35 28 59-1 24-4 46-39 44-85-6-142 35-164 115-22 78 11 140 82 177 35 19 16 38 6 56-11 19-12 55-53 33-72-38-138-22-191 37-48 53-52 122-3 196 30 44-8 51-25 71-24 30-40 14-61-7-56-56-125-67-186-34-65 35-97 100-76 180 9 38-6 46-33 54-30 10-48 10-64-28-39-90-127-122-209-84-49 23-80 61-87 113-5 40-23 49-60 45-39-3-50-19-49-58 1-75-41-124-110-148-64-22-132 2-173 63-20 30-33 44-70 22-32-19-32-33-19-65 27-69 6-140-47-179-59-43-124-49-183-6-36 26-51 11-74-14-24-28-28-44 3-74 50-48 58-126 23-182-38-63-96-93-167-75-36 8-46-3-55-31-9-30-10-49 28-64 68-27 102-85 94-158-9-73-52-122-125-135-33-6-46-16-40-49 5-28-3-64 46-63 74 1 127-37 147-108 20-70 2-134-62-174-33-20-25-37-11-62 13-24 21-44 57-28 67 32 130 15 178-41s54-121 12-183c-23-33-12-49 13-69 22-19 38-35 69-5 50 50 112 58 175 26 63-33 90-87 82-163z"/><path class="fil4" d="M24222 1629c-102 42-205 42-307 27-150-23-280-91-387-201-27-28-28-46 9-62 22-9 43-20 62-33 83-58 161-89 255-13 49 40 120 40 184 33 35-3 56 8 72 40 35 69 73 137 112 209zM24455 1499c-41-75-80-149-122-223-16-27-3-43 10-63 54-76 78-161 71-254-2-27 3-44 28-58 63-32 124-66 186-101 26-14 39-14 49 20 72 222-28 533-222 679zM23372 1181c-78-236 1-529 180-687 31-28 45-22 59 12 9 20 19 39 31 56 59 83 90 161 10 254-38 44-43 111-36 170 7 52-15 75-58 96-61 28-120 63-186 99zM24532 550c-74 41-148 80-221 122-21 12-34 6-51-7-79-61-169-88-270-83-11 1-29 1-32-6-43-73-87-145-124-221-13-26 19-25 36-29 228-63 514 33 662 224zM24169 972c2 89-70 163-159 164-86 0-164-77-163-162 1-87 79-162 165-161 85 1 156 73 157 159zM23347 12710v2375h-139v-2375zM24111 12724v2375h-139v-2375z"/><path class="fil10" d="M25129 11846c50-22 85-13 105 54 19 61-6 80-55 100-112 47-158 137-148 257 10 116 79 185 186 214 60 16 100 28 90 106-9 73-46 70-102 74-108 9-196 61-227 172-32 111-9 213 90 285 38 28 74 46 46 107-30 63-65 55-121 39-103-30-204-18-276 72-73 93-79 200-16 298 39 60 18 87-25 125-44 40-72 34-113-5-86-81-190-96-294-40-103 55-154 148-128 266 11 51 1 74-46 91-50 19-82 18-107-40-47-110-138-164-255-153-116 10-197 78-219 198-11 60-41 73-94 69-50-5-75-17-89-77-65-276-255-331-459-136-36 35-60 44-102 20-40-24-50-50-43-99 37-281-108-399-371-299-58 22-82 3-115-33s-32-66 1-104c78-90 90-194 30-297-56-96-147-143-256-120-68 15-74-21-93-65-26-59 11-75 52-103 172-116 190-304 43-417-31-23-71-38-109-47-62-15-61-56-59-104 2-52 27-69 76-71 119-7 198-69 233-184 36-120-11-210-106-276-48-33-35-62-18-102 22-48 50-70 106-46 113 48 209 13 284-77 77-93 82-197 12-295-40-55-12-79 23-112 41-40 71-36 113 4 87 82 190 97 294 37 101-58 152-152 123-270-15-63 8-77 58-95 53-19 81-12 106 43 49 108 137 161 256 151 122-11 192-87 220-200 13-54 29-78 87-73 56 5 78 24 81 84 6 123 68 215 190 245 120 30 222-9 285-120 29-52 62-40 100-20 39 19 69 41 47 94-49 116-32 223 67 302 103 83 216 79 320-2 52-41 71 5 97 31 37 35 51 67 3 112-91 86-113 191-53 305 57 107 153 141 275 127z"/><path class="fil4" d="M24283 13248c-62-111-122-221-185-330-23-41-21-74 7-111 96-131 142-278 125-441-5-52 18-73 57-94 93-49 188-97 279-152 57-34 80-14 94 41 95 365-42 861-377 1087zM23587 11320c297-1 552 103 768 308 58 55 74 93-15 126-32 13-65 30-93 51-135 99-269 140-417 18-36-29-96-27-144-41-72-21-167 32-216-34-75-101-128-218-187-330-26-49 14-59 49-70 83-28 170-22 255-28zM22483 12445c8-327 115-577 309-793 63-70 102-69 137 19 11 28 26 55 42 81 88 130 154 255 20 403-49 54-51 140-57 217-5 57 29 128-41 166-111 61-222 121-336 175-31 15-37-23-42-47-16-85-37-169-32-221zM23611 13517c-312-11-575-109-794-316-61-57-84-102 15-139 32-13 64-31 92-51 124-89 243-121 376-8 56 48 140 74 214 62 158-26 218 66 279 187 117 234 122 231-136 260-20 2-40 4-46 5zM23307 12417c11-147 128-248 279-241 149 8 248 124 238 277-9 135-133 246-267 239-140-7-259-138-250-275z"/><path class="fil10" d="M4047 11643c-5 87 49 127 132 99 16-6 29-17 45 1 16 19 13 31 2 52-42 84-11 141 80 150 19 2 33-2 40 21 7 22-5 29-19 41-75 68-69 121 20 170 17 10 28 17 27 39s-15 25-33 31c-95 30-111 85-47 165 13 15 20 24 10 44-12 20-26 15-44 13-95-9-137 45-105 135 7 19 12 31-5 45-16 15-26 10-44 0-91-50-149-18-152 83-1 20 1 34-21 39-21 6-30-5-43-19-69-80-125-73-171 22-9 19-17 28-37 27-22-1-26-14-31-33-28-104-84-120-169-47-12 10-19 20-37 11-18-10-21-21-19-42 12-108-36-147-137-110-19 7-30 8-43-8-14-16-10-27 1-45 56-91 25-150-82-157-18-1-33 2-40-21-6-25 11-29 25-39 76-60 69-129-17-172-18-8-38-10-35-38 3-29 20-27 40-32 95-22 114-95 45-169-10-11-25-15-15-35 9-18 18-22 40-21 115 7 147-32 111-137-7-22-3-31 11-43 16-15 27-8 45 1 90 50 140 22 153-84 2-15-1-29 18-35 21-6 29 3 42 18 67 81 120 75 172-21 11-19 19-26 39-24 18 2 22 12 28 28 40 106 76 117 171 47 17-12 26-7 38-1 28 12 12 33 11 51z"/><path class="fil4" d="M3324 12169c6-121 41-213 113-292 29-32 42-26 62 10 31 58 69 112 15 179-15 19-19 53-17 78 6 47-16 69-54 84-33 13-70 59-96 37-23-19-19-72-23-96zM3735 12565c-106 2-197-35-276-105-26-23-40-38 4-62 63-33 120-75 191-16 15 13 43 16 64 14 43-3 65 15 84 52 59 111 58 117-67 117zM4039 11900c-34 20-67 46-103 57-84 25-149-56-236-50-30 2-52-77-73-122-10-19 9-23 23-28 122-39 308 28 389 143zM4137 12159c1 106-36 198-106 277-24 28-40 27-59-7-33-60-78-116-14-185 10-11 16-33 14-48-11-68 31-95 82-121 74-37 78-36 83 47 1 12 0 25 0 37zM3738 12250c-54-9-92-36-92-96-1-59 33-92 90-98 51-5 105 47 100 98-6 56-39 89-98 96z"/><path class="fil9" d="M5166 11214c-151-10-219 83-168 210 12 29 32 50-3 79-34 28-50 10-79-8-131-84-231-28-239 134-2 29 5 53-33 63-37 10-44-15-61-37-94-120-204-110-269 26-14 27-15 58-60 54-44-4-42-31-50-63-33-143-155-178-260-78-17 16-20 51-61 31-40-19-30-43-27-76 15-154-69-219-212-166-26 10-45 25-69-4-24-28-22-46-3-80 77-131 23-232-124-240-26-2-51 14-64-27-11-35 6-44 29-63 128-101 117-193-33-269-24-13-38-21-38-49 1-30 12-47 43-60 172-70 183-108 75-266-18-27-10-42-1-62 13-26 33-19 59-17 162 14 216-55 168-216-9-27-8-42 12-59 22-19 39-22 71-8 153 72 211 39 239-134 5-29 13-40 38-48 28-9 40 4 58 23 121 126 188 119 272-29 17-29 32-39 63-37 37 3 36 30 45 57 43 140 140 168 254 73 21-18 32-42 67-24 38 19 30 44 26 77-15 134 75 210 199 167 33-11 57-35 90 5 32 40-5 53-18 77-66 116-10 217 127 227 30 2 64-11 76 33 12 40-16 50-42 71-111 90-95 203 37 262 31 14 56 17 51 60-5 49-39 37-68 44-128 32-168 154-82 250 21 22 70 27 41 79-27 46-61 18-76 18z"/><path class="fil4" d="M4524 11351c-223 65-421 13-600-129-56-44-82-75 5-121 270-142 184 17 387 26 175 36 144 31 208 224zM4983 10742c2 170-61 313-172 437-33 38-58 46-84-7-46-98-138-186-33-303 22-26 28-76 24-113-6-68 28-96 81-124 172-92 184-87 184 110zM4344 10108c167-3 310 57 435 166 44 39 46 64-10 92-91 46-172 118-279 26-26-23-77-26-114-25-68 4-104-23-135-82-93-173-92-177 103-177zM3937 10253c26 47 44 87 69 121 43 63 63 119 3 186-23 27-41 74-36 109 19 146-93 177-186 228-55 30-67 2-73-46-30-233 34-431 223-598zM4327 10583c86-8 162 63 159 148-4 93-61 147-148 149-188 5-212-279-11-297z"/><path class="fil5" d="M21097 14275h-1278v-964h1278z"/><path class="fil4" d="M20631 13786c0-99-80-179-178-179s-178 80-178 179 80 179 178 179 178-80 178-179z"/><path class="fil5" d="M21097 2849h-1278v-963h1278z"/><path class="fil4" d="M20631 2361c0-99-80-179-178-179s-178 80-178 179c0 98 80 178 178 178s178-80 178-178z"/><path class="fil5" d="M6819 2863H5542v-963h1277z"/><path class="fil4" d="M6353 2374c0-98-79-178-178-178-98 0-178 80-178 178 0 99 80 179 178 179 99 0 178-80 178-179z"/><path class="fil5" d="M6819 14275H5542v-964h1277z"/><path class="fil4" d="M6353 13786c0-99-79-179-178-179-98 0-178 80-178 179s80 179 178 179c99 0 178-80 178-179z"/><path class="fil3" d="M3972 14v2626h-139V14zM1639 14v2626h-139V14z"/><path class="fil1" d="M1479 14652h-30c-146-2-293-4-436 33-56 14-111 30-158 66-26 28-55 53-89 72-74 66-100 154-115 248-2 10-4 21-5 32h-67c16-167 80-308 228-407 24-32 61-40 94-57 83-36 170-48 258-58 97-11 194-8 290-8 11 1 21 0 30-1v80z"/><path class="fil3" d="M766 14823c23-32 54-55 89-72-32 115-50 233-54 352h-67c4-94 18-187 32-280z"/><path class="fil4" d="M1482 14084h108l2-161 2138-1-1 987H1590v-175l-108-3-4-203h115l-3-216-108-1z"/><path class="fil3" d="M897 14653l-87 45c93-301 309-476 574-516 32-5 65-10 98-10v78h-12c-163 11-307 64-422 184-52 54-91 117-126 182-7 13-10 30-25 37zM3541 14022c47-1 80 32 81 79s-30 82-76 84c-43 2-86-39-86-82 1-44 38-81 81-81z"/><path class="fil10" d="M3543 14395c-49 0-85-34-84-81 1-42 40-78 84-78 47 1 79 33 79 80 1 48-31 79-79 79z"/><path class="fil3" d="M3541 14634c-47 0-78-32-77-81 0-49 29-78 79-78 47 1 80 34 79 81 0 46-34 79-81 78z"/><path class="fil11" d="M17200 2875h-177c4-28-6-59 16-85 10 25-13 70 40 72 48 1 100 12 117-54 1 22 2 45 4 67z"/><path class="fil4" d="M8970 3312V0h-74v3312zM9376 3305V0h-74v3305z"/><path class="fil10" d="M9916 3771c27 12 45 7 56-28 10-33-4-43-29-54-60-25-84-72-79-136 5-62 42-98 99-113 32-9 53-15 48-57-5-38-25-37-55-39-57-5-104-32-120-91-17-59-5-113 47-152 21-14 40-24 25-56-16-34-35-30-64-21-55 16-109 9-147-39-39-49-42-106-8-158 21-32 9-46-13-66-24-22-38-18-60 2-46 44-101 51-157 22-54-30-81-79-67-142 5-27 0-39-25-48-27-10-44-9-57 22-25 58-73 87-135 81s-105-42-116-106c-6-31-22-38-50-36-27 2-40 9-48 41-34 146-135 176-243 72-19-19-32-23-54-10-22 12-27 26-23 52 20 149-57 212-197 159-31-12-44-2-61 17-18 19-17 35 0 56 41 48 48 102 16 157-29 51-78 76-136 64-36-8-39 11-49 34-14 32 6 40 28 55 91 62 101 162 22 221-16 13-37 21-58 26-33 7-32 29-31 55 1 27 14 36 41 38 62 3 104 36 123 97 19 64-6 112-56 146-26 18-19 34-10 55 12 25 27 37 56 24 60-25 112-7 151 41 41 49 44 105 6 157-21 29-6 41 13 59 22 21 38 19 60-2 46-44 101-51 156-20 54 31 81 81 66 143-9 34 4 42 30 51 28 10 43 7 56-23 26-57 73-85 136-80 65 6 102 46 117 106 7 29 16 42 47 39 29-2 41-13 43-44 3-66 36-115 100-131 64-15 118 5 152 64 15 28 32 22 53 11 20-11 36-22 24-50-26-62-16-118 36-160 55-44 115-43 170 1 28 21 38-3 52-17 19-19 27-35 1-59-48-46-60-102-28-162 30-57 81-75 146-68z"/><path class="fil12" d="M9467 3027c-33 59-65 117-98 175-13 22-11 39 3 59 52 69 76 148 67 234-3 28 10 39 30 50 50 26 100 52 148 81 30 18 43 7 50-22 51-194-22-457-200-577zM9097 4050c158 1 294-54 408-163 31-29 39-49-8-67-17-7-34-16-49-27-72-53-143-74-222-10-19 16-51 15-76 22-38 12-89-17-115 18-39 54-68 116-99 176-14 26 7 31 26 37 44 15 90 11 135 14zM8511 3453c5 174 61 307 164 421 34 38 54 37 73-10 6-15 14-29 23-43 46-69 81-135 10-214-26-28-27-74-31-115-2-30 16-68-21-88-59-33-118-64-179-93-16-8-19 12-22 25-8 45-20 90-17 117zM9110 2884c-166 6-305 58-422 168-32 30-44 54 8 74 18 6 34 16 50 27 65 47 128 64 199 4 29-25 74-39 114-33 83 14 115-35 148-99 62-124 64-123-73-138-10-1-21-2-24-3zM8949 3468c5 78 68 132 148 128 79-4 132-66 126-147-5-72-70-130-141-127-75 4-138 73-133 146z"/></g></g></svg>